<mxfile host="Electron" modified="2023-11-09T17:30:56.964Z" agent="Mozilla/5.0 (Windows NT 10.0; Win64; x64) AppleWebKit/537.36 (KHTML, like Gecko) draw.io/22.0.3 Chrome/114.0.5735.289 Electron/25.8.4 Safari/537.36" etag="Y_5l2ZczQk14c5iUa58w" version="22.0.3" type="device" pages="2">
  <diagram id="C5RBs43oDa-KdzZeNtuy" name="Page-1">
    <mxGraphModel dx="1036" dy="606" grid="1" gridSize="10" guides="1" tooltips="1" connect="1" arrows="1" fold="1" page="1" pageScale="1" pageWidth="827" pageHeight="1169" math="0" shadow="0">
      <root>
        <mxCell id="WIyWlLk6GJQsqaUBKTNV-0" />
        <mxCell id="WIyWlLk6GJQsqaUBKTNV-1" parent="WIyWlLk6GJQsqaUBKTNV-0" />
        <mxCell id="6eJlKw85BkEIQBGvRNYy-0" value="Start" style="ellipse;whiteSpace=wrap;html=1;" parent="WIyWlLk6GJQsqaUBKTNV-1" vertex="1">
          <mxGeometry x="270" y="30" width="120" height="80" as="geometry" />
        </mxCell>
        <mxCell id="6eJlKw85BkEIQBGvRNYy-4" style="edgeStyle=orthogonalEdgeStyle;rounded=0;orthogonalLoop=1;jettySize=auto;html=1;entryX=0.5;entryY=0;entryDx=0;entryDy=0;" parent="WIyWlLk6GJQsqaUBKTNV-1" source="6eJlKw85BkEIQBGvRNYy-1" target="6eJlKw85BkEIQBGvRNYy-3" edge="1">
          <mxGeometry relative="1" as="geometry" />
        </mxCell>
        <mxCell id="6eJlKw85BkEIQBGvRNYy-1" value="year,month" style="shape=parallelogram;perimeter=parallelogramPerimeter;whiteSpace=wrap;html=1;fixedSize=1;" parent="WIyWlLk6GJQsqaUBKTNV-1" vertex="1">
          <mxGeometry x="226.5" y="150" width="180" height="90" as="geometry" />
        </mxCell>
        <mxCell id="6eJlKw85BkEIQBGvRNYy-2" style="edgeStyle=orthogonalEdgeStyle;rounded=0;orthogonalLoop=1;jettySize=auto;html=1;entryX=0.575;entryY=-0.017;entryDx=0;entryDy=0;entryPerimeter=0;" parent="WIyWlLk6GJQsqaUBKTNV-1" source="6eJlKw85BkEIQBGvRNYy-0" target="6eJlKw85BkEIQBGvRNYy-1" edge="1">
          <mxGeometry relative="1" as="geometry" />
        </mxCell>
        <mxCell id="6eJlKw85BkEIQBGvRNYy-8" style="edgeStyle=orthogonalEdgeStyle;rounded=0;orthogonalLoop=1;jettySize=auto;html=1;" parent="WIyWlLk6GJQsqaUBKTNV-1" source="6eJlKw85BkEIQBGvRNYy-3" target="6eJlKw85BkEIQBGvRNYy-7" edge="1">
          <mxGeometry relative="1" as="geometry" />
        </mxCell>
        <mxCell id="NlwlfV2c1esCAamGZ_D2-5" style="edgeStyle=orthogonalEdgeStyle;rounded=0;orthogonalLoop=1;jettySize=auto;html=1;exitX=0;exitY=0.25;exitDx=0;exitDy=0;" edge="1" parent="WIyWlLk6GJQsqaUBKTNV-1" source="6eJlKw85BkEIQBGvRNYy-3">
          <mxGeometry relative="1" as="geometry">
            <mxPoint x="180" y="318" as="targetPoint" />
          </mxGeometry>
        </mxCell>
        <mxCell id="NlwlfV2c1esCAamGZ_D2-6" style="edgeStyle=orthogonalEdgeStyle;rounded=0;orthogonalLoop=1;jettySize=auto;html=1;exitX=0;exitY=0.5;exitDx=0;exitDy=0;entryX=0.5;entryY=0;entryDx=0;entryDy=0;" edge="1" parent="WIyWlLk6GJQsqaUBKTNV-1" source="6eJlKw85BkEIQBGvRNYy-3" target="6eJlKw85BkEIQBGvRNYy-5">
          <mxGeometry relative="1" as="geometry">
            <mxPoint x="190" y="347" as="targetPoint" />
            <Array as="points">
              <mxPoint x="260" y="350" />
              <mxPoint x="190" y="350" />
              <mxPoint x="190" y="405" />
            </Array>
          </mxGeometry>
        </mxCell>
        <mxCell id="6eJlKw85BkEIQBGvRNYy-3" value="switch(month)" style="whiteSpace=wrap;html=1;aspect=fixed;" parent="WIyWlLk6GJQsqaUBKTNV-1" vertex="1">
          <mxGeometry x="259.75" y="290" width="113.5" height="113.5" as="geometry" />
        </mxCell>
        <mxCell id="NlwlfV2c1esCAamGZ_D2-4" style="edgeStyle=orthogonalEdgeStyle;rounded=0;orthogonalLoop=1;jettySize=auto;html=1;exitX=0.5;exitY=1;exitDx=0;exitDy=0;entryX=0.5;entryY=0;entryDx=0;entryDy=0;" edge="1" parent="WIyWlLk6GJQsqaUBKTNV-1" source="6eJlKw85BkEIQBGvRNYy-5" target="6eJlKw85BkEIQBGvRNYy-17">
          <mxGeometry relative="1" as="geometry" />
        </mxCell>
        <mxCell id="6eJlKw85BkEIQBGvRNYy-5" value="case 1,3,5,7,8,10,12" style="rhombus;whiteSpace=wrap;html=1;" parent="WIyWlLk6GJQsqaUBKTNV-1" vertex="1">
          <mxGeometry x="110" y="405" width="170" height="120" as="geometry" />
        </mxCell>
        <mxCell id="NlwlfV2c1esCAamGZ_D2-9" style="edgeStyle=orthogonalEdgeStyle;rounded=0;orthogonalLoop=1;jettySize=auto;html=1;exitX=1;exitY=0.5;exitDx=0;exitDy=0;" edge="1" parent="WIyWlLk6GJQsqaUBKTNV-1" source="6eJlKw85BkEIQBGvRNYy-7" target="NlwlfV2c1esCAamGZ_D2-1">
          <mxGeometry relative="1" as="geometry" />
        </mxCell>
        <mxCell id="6eJlKw85BkEIQBGvRNYy-7" value="case 4,6, 9,11" style="rhombus;whiteSpace=wrap;html=1;" parent="WIyWlLk6GJQsqaUBKTNV-1" vertex="1">
          <mxGeometry x="414" y="290" width="170" height="115" as="geometry" />
        </mxCell>
        <mxCell id="NlwlfV2c1esCAamGZ_D2-8" style="edgeStyle=orthogonalEdgeStyle;rounded=0;orthogonalLoop=1;jettySize=auto;html=1;exitX=0.5;exitY=1;exitDx=0;exitDy=0;entryX=0.5;entryY=0;entryDx=0;entryDy=0;" edge="1" parent="WIyWlLk6GJQsqaUBKTNV-1" source="6eJlKw85BkEIQBGvRNYy-9" target="6eJlKw85BkEIQBGvRNYy-15">
          <mxGeometry relative="1" as="geometry" />
        </mxCell>
        <mxCell id="6eJlKw85BkEIQBGvRNYy-9" value="case 2" style="rhombus;whiteSpace=wrap;html=1;" parent="WIyWlLk6GJQsqaUBKTNV-1" vertex="1">
          <mxGeometry x="314" y="415" width="200" height="110" as="geometry" />
        </mxCell>
        <mxCell id="6eJlKw85BkEIQBGvRNYy-20" style="edgeStyle=orthogonalEdgeStyle;rounded=0;orthogonalLoop=1;jettySize=auto;html=1;entryX=0.5;entryY=0;entryDx=0;entryDy=0;" parent="WIyWlLk6GJQsqaUBKTNV-1" source="6eJlKw85BkEIQBGvRNYy-11" target="6eJlKw85BkEIQBGvRNYy-19" edge="1">
          <mxGeometry relative="1" as="geometry" />
        </mxCell>
        <mxCell id="6eJlKw85BkEIQBGvRNYy-11" value="default" style="rhombus;whiteSpace=wrap;html=1;" parent="WIyWlLk6GJQsqaUBKTNV-1" vertex="1">
          <mxGeometry y="267" width="166.5" height="110" as="geometry" />
        </mxCell>
        <mxCell id="NlwlfV2c1esCAamGZ_D2-12" style="edgeStyle=orthogonalEdgeStyle;rounded=0;orthogonalLoop=1;jettySize=auto;html=1;exitX=0;exitY=0.5;exitDx=0;exitDy=0;" edge="1" parent="WIyWlLk6GJQsqaUBKTNV-1" source="6eJlKw85BkEIQBGvRNYy-15" target="6eJlKw85BkEIQBGvRNYy-21">
          <mxGeometry relative="1" as="geometry">
            <mxPoint x="320" y="570" as="targetPoint" />
            <Array as="points">
              <mxPoint x="320" y="570" />
            </Array>
          </mxGeometry>
        </mxCell>
        <mxCell id="6eJlKw85BkEIQBGvRNYy-15" value="28days" style="rounded=0;whiteSpace=wrap;html=1;" parent="WIyWlLk6GJQsqaUBKTNV-1" vertex="1">
          <mxGeometry x="354" y="540" width="120" height="60" as="geometry" />
        </mxCell>
        <mxCell id="NlwlfV2c1esCAamGZ_D2-11" style="edgeStyle=orthogonalEdgeStyle;rounded=0;orthogonalLoop=1;jettySize=auto;html=1;exitX=1;exitY=0.5;exitDx=0;exitDy=0;" edge="1" parent="WIyWlLk6GJQsqaUBKTNV-1" source="6eJlKw85BkEIQBGvRNYy-17" target="6eJlKw85BkEIQBGvRNYy-21">
          <mxGeometry relative="1" as="geometry">
            <mxPoint x="290" y="570" as="targetPoint" />
            <Array as="points">
              <mxPoint x="290" y="570" />
            </Array>
          </mxGeometry>
        </mxCell>
        <mxCell id="6eJlKw85BkEIQBGvRNYy-17" value="31 days" style="rounded=0;whiteSpace=wrap;html=1;" parent="WIyWlLk6GJQsqaUBKTNV-1" vertex="1">
          <mxGeometry x="135" y="540" width="120" height="60" as="geometry" />
        </mxCell>
        <mxCell id="NlwlfV2c1esCAamGZ_D2-10" style="edgeStyle=orthogonalEdgeStyle;rounded=0;orthogonalLoop=1;jettySize=auto;html=1;exitX=1;exitY=0.5;exitDx=0;exitDy=0;entryX=0;entryY=0.5;entryDx=0;entryDy=0;" edge="1" parent="WIyWlLk6GJQsqaUBKTNV-1" source="6eJlKw85BkEIQBGvRNYy-19" target="6eJlKw85BkEIQBGvRNYy-21">
          <mxGeometry relative="1" as="geometry" />
        </mxCell>
        <mxCell id="6eJlKw85BkEIQBGvRNYy-19" value="nhap sai" style="rounded=0;whiteSpace=wrap;html=1;" parent="WIyWlLk6GJQsqaUBKTNV-1" vertex="1">
          <mxGeometry x="23.25" y="870" width="120" height="60" as="geometry" />
        </mxCell>
        <mxCell id="6eJlKw85BkEIQBGvRNYy-21" value="end" style="ellipse;whiteSpace=wrap;html=1;" parent="WIyWlLk6GJQsqaUBKTNV-1" vertex="1">
          <mxGeometry x="244" y="820" width="270" height="160" as="geometry" />
        </mxCell>
        <mxCell id="NlwlfV2c1esCAamGZ_D2-13" style="edgeStyle=orthogonalEdgeStyle;rounded=0;orthogonalLoop=1;jettySize=auto;html=1;exitX=0.5;exitY=1;exitDx=0;exitDy=0;entryX=0.99;entryY=0.559;entryDx=0;entryDy=0;entryPerimeter=0;" edge="1" parent="WIyWlLk6GJQsqaUBKTNV-1" source="NlwlfV2c1esCAamGZ_D2-1" target="6eJlKw85BkEIQBGvRNYy-21">
          <mxGeometry relative="1" as="geometry">
            <mxPoint x="670" y="910" as="targetPoint" />
            <Array as="points">
              <mxPoint x="670" y="909" />
            </Array>
          </mxGeometry>
        </mxCell>
        <mxCell id="NlwlfV2c1esCAamGZ_D2-1" value="30 day" style="rounded=0;whiteSpace=wrap;html=1;" vertex="1" parent="WIyWlLk6GJQsqaUBKTNV-1">
          <mxGeometry x="610" y="317" width="120" height="60" as="geometry" />
        </mxCell>
        <mxCell id="NlwlfV2c1esCAamGZ_D2-7" style="edgeStyle=orthogonalEdgeStyle;rounded=0;orthogonalLoop=1;jettySize=auto;html=1;exitX=0.75;exitY=1;exitDx=0;exitDy=0;entryX=0.154;entryY=0.349;entryDx=0;entryDy=0;entryPerimeter=0;" edge="1" parent="WIyWlLk6GJQsqaUBKTNV-1" source="6eJlKw85BkEIQBGvRNYy-3" target="6eJlKw85BkEIQBGvRNYy-9">
          <mxGeometry relative="1" as="geometry" />
        </mxCell>
      </root>
    </mxGraphModel>
  </diagram>
  <diagram id="S-ZReAt_9M_W4qN4u6gg" name="Page-2">
    <mxGraphModel dx="1036" dy="606" grid="1" gridSize="10" guides="1" tooltips="1" connect="1" arrows="1" fold="1" page="1" pageScale="1" pageWidth="850" pageHeight="1100" math="0" shadow="0">
      <root>
        <mxCell id="0" />
        <mxCell id="1" parent="0" />
      </root>
    </mxGraphModel>
  </diagram>
</mxfile>
